# xmcd
#
# Track frame offsets:
#	150
#	14475
#	24900
#	35325
#	48450
#	59250
#	71925
#	104213
#	115425
#	133238
#	146850
#	161925
#
# Disc length: 2312 seconds
#
# Revision: 1
# Processed by: cddbd v1.5PL3 Copyright (c) Steve Scherf et al.
# Submitted via: EasyCDDAExtractor 7.0.5.4
#
DISCID=be09060c
DTITLE=Buddy Guy
DYEAR=1900
DGENRE=Blues
TTITLE0=Broken Hearted Blues
TTITLE1=I Got My Eyes On You
TTITLE2=First Time I Met The Blues
TTITLE3=Let Me Love You Baby
TTITLE4=Hard But Fair
TTITLE5=When My Left Eye Jumps
TTITLE6=Stone Crazy
TTITLE7=No Lie
TTITLE8=Stick Around
TTITLE9=My Time After Awhile
TTITLE10=Leave My Girl Alone
TTITLE11=My Mother
EXTD=
EXTT0=
EXTT1=
EXTT2=
EXTT3=
EXTT4=
EXTT5=
EXTT6=
EXTT7=
EXTT8=
EXTT9=
EXTT10=
EXTT11=
PLAYORDER=
